solid Created by surf2stl.m 25-Oct-2023 19:00:38
facet normal 1.9368711E-03 2.7726138E-02 -9.9961368E-01
outer loop
vertex -5.7678001E+01 -5.7678001E+01 8.7736747E+00
vertex -5.7678001E+01 -1.9226000E+01 9.8402122E+00
vertex -1.9226000E+01 -1.9226000E+01 9.9147175E+00
endloop
endfacet
facet normal 1.9570983E-02 1.0096293E-02 -9.9975749E-01
outer loop
vertex -1.9226000E+01 -1.9226000E+01 9.9147175E+00
vertex -1.9226000E+01 -5.7678001E+01 9.5264007E+00
vertex -5.7678001E+01 -5.7678001E+01 8.7736747E+00
endloop
endfacet
facet normal -2.3632223E-03 2.6530666E-02 -9.9964521E-01
outer loop
vertex -5.7678001E+01 -1.9226000E+01 9.8402122E+00
vertex -5.7678001E+01 1.9226000E+01 1.0860731E+01
vertex -1.9226000E+01 1.9226000E+01 1.0769829E+01
endloop
endfacet
facet normal 1.9371370E-03 2.2232863E-02 -9.9975094E-01
outer loop
vertex -1.9226000E+01 1.9226000E+01 1.0769829E+01
vertex -1.9226000E+01 -1.9226000E+01 9.9147175E+00
vertex -5.7678001E+01 -1.9226000E+01 9.8402122E+00
endloop
endfacet
facet normal -2.4185947E-02 1.5972294E-02 -9.9957987E-01
outer loop
vertex -5.7678001E+01 1.9226000E+01 1.0860731E+01
vertex -5.7678001E+01 5.7678001E+01 1.1475156E+01
vertex -1.9226000E+01 5.7678001E+01 1.0544767E+01
endloop
endfacet
facet normal -2.3640139E-03 -5.8529270E-03 -9.9998008E-01
outer loop
vertex -1.9226000E+01 5.7678001E+01 1.0544767E+01
vertex -1.9226000E+01 1.9226000E+01 1.0769829E+01
vertex -5.7678001E+01 1.9226000E+01 1.0860731E+01
endloop
endfacet
facet normal -4.0325637E-02 1.9273780E-02 -9.9900068E-01
outer loop
vertex -5.7678001E+01 5.7678001E+01 1.1475156E+01
vertex -5.7678001E+01 9.6130001E+01 1.2217013E+01
vertex -1.9226000E+01 9.6130001E+01 1.0664860E+01
endloop
endfacet
facet normal -2.4188915E-02 3.1222677E-03 -9.9970253E-01
outer loop
vertex -1.9226000E+01 9.6130001E+01 1.0664860E+01
vertex -1.9226000E+01 5.7678001E+01 1.0544767E+01
vertex -5.7678001E+01 5.7678001E+01 1.1475156E+01
endloop
endfacet
facet normal 1.2305659E-02 1.0097463E-02 -9.9987330E-01
outer loop
vertex -1.9226000E+01 -5.7678001E+01 9.5264007E+00
vertex -1.9226000E+01 -1.9226000E+01 9.9147175E+00
vertex 1.9226000E+01 -1.9226000E+01 1.0387955E+01
endloop
endfacet
facet normal 2.6073335E-02 -3.6751427E-03 -9.9965328E-01
outer loop
vertex 1.9226000E+01 -1.9226000E+01 1.0387955E+01
vertex 1.9226000E+01 -5.7678001E+01 1.0529320E+01
vertex -1.9226000E+01 -5.7678001E+01 9.5264007E+00
endloop
endfacet
facet normal -1.7639438E-02 2.2229445E-02 -9.9959727E-01
outer loop
vertex -1.9226000E+01 -1.9226000E+01 9.9147175E+00
vertex -1.9226000E+01 1.9226000E+01 1.0769829E+01
vertex 1.9226000E+01 1.9226000E+01 1.0091284E+01
endloop
endfacet
facet normal 1.2305920E-02 -7.7145481E-03 -9.9989452E-01
outer loop
vertex 1.9226000E+01 1.9226000E+01 1.0091284E+01
vertex 1.9226000E+01 -1.9226000E+01 1.0387955E+01
vertex -1.9226000E+01 -1.9226000E+01 9.9147175E+00
endloop
endfacet
facet normal -7.2932282E-02 -5.8373564E-03 -9.9731981E-01
outer loop
vertex -1.9226000E+01 1.9226000E+01 1.0769829E+01
vertex -1.9226000E+01 5.7678001E+01 1.0544767E+01
vertex 1.9226000E+01 5.7678001E+01 7.7328387E+00
endloop
endfacet
facet normal -1.7610714E-02 -6.1210240E-02 -9.9796952E-01
outer loop
vertex 1.9226000E+01 5.7678001E+01 7.7328387E+00
vertex 1.9226000E+01 1.9226000E+01 1.0091284E+01
vertex -1.9226000E+01 1.9226000E+01 1.0769829E+01
endloop
endfacet
facet normal -1.0882822E-01 3.1046316E-03 -9.9405572E-01
outer loop
vertex -1.9226000E+01 5.7678001E+01 1.0544767E+01
vertex -1.9226000E+01 9.6130001E+01 1.0664860E+01
vertex 1.9226000E+01 9.6130001E+01 6.4551742E+00
endloop
endfacet
facet normal -7.2893510E-02 -3.3120843E-02 -9.9678962E-01
outer loop
vertex 1.9226000E+01 9.6130001E+01 6.4551742E+00
vertex 1.9226000E+01 5.7678001E+01 7.7328387E+00
vertex -1.9226000E+01 5.7678001E+01 1.0544767E+01
endloop
endfacet
facet normal 8.4061765E-03 -3.6762626E-03 -9.9995791E-01
outer loop
vertex 1.9226000E+01 -5.7678001E+01 1.0529320E+01
vertex 1.9226000E+01 -1.9226000E+01 1.0387955E+01
vertex 5.7678001E+01 -1.9226000E+01 1.0711203E+01
endloop
endfacet
facet normal 2.9098183E-02 -2.4371478E-02 -9.9927940E-01
outer loop
vertex 5.7678001E+01 -1.9226000E+01 1.0711203E+01
vertex 5.7678001E+01 -5.7678001E+01 1.1649010E+01
vertex 1.9226000E+01 -5.7678001E+01 1.0529320E+01
endloop
endfacet
facet normal -3.7264597E-02 -7.7097736E-03 -9.9927569E-01
outer loop
vertex 1.9226000E+01 -1.9226000E+01 1.0387955E+01
vertex 1.9226000E+01 1.9226000E+01 1.0091284E+01
vertex 5.7678001E+01 1.9226000E+01 8.6573467E+00
endloop
endfacet
facet normal 8.3942682E-03 -5.3335589E-02 -9.9854136E-01
outer loop
vertex 5.7678001E+01 1.9226000E+01 8.6573467E+00
vertex 5.7678001E+01 -1.9226000E+01 1.0711203E+01
vertex 1.9226000E+01 -1.9226000E+01 1.0387955E+01
endloop
endfacet
facet normal -6.8297153E-02 -6.1076787E-02 -9.9579372E-01
outer loop
vertex 1.9226000E+01 1.9226000E+01 1.0091284E+01
vertex 1.9226000E+01 5.7678001E+01 7.7328387E+00
vertex 5.7678001E+01 5.7678001E+01 5.0955835E+00
endloop
endfacet
facet normal -3.7107074E-02 -9.2170449E-02 -9.9505159E-01
outer loop
vertex 5.7678001E+01 5.7678001E+01 5.0955835E+00
vertex 5.7678001E+01 1.9226000E+01 8.6573467E+00
vertex 1.9226000E+01 1.9226000E+01 1.0091284E+01
endloop
endfacet
facet normal -7.4862093E-02 -3.3116000E-02 -9.9664387E-01
outer loop
vertex 1.9226000E+01 5.7678001E+01 7.7328387E+00
vertex 1.9226000E+01 9.6130001E+01 6.4551742E+00
vertex 5.7678001E+01 9.6130001E+01 3.5668834E+00
endloop
endfacet
facet normal -6.8371139E-02 -3.9631721E-02 -9.9687247E-01
outer loop
vertex 5.7678001E+01 9.6130001E+01 3.5668834E+00
vertex 5.7678001E+01 5.7678001E+01 5.0955835E+00
vertex 1.9226000E+01 5.7678001E+01 7.7328387E+00
endloop
endfacet
facet normal 5.1759605E-03 -2.4381476E-02 -9.9968933E-01
outer loop
vertex 5.7678001E+01 -5.7678001E+01 1.1649010E+01
vertex 5.7678001E+01 -1.9226000E+01 1.0711203E+01
vertex 9.6130001E+01 -1.9226000E+01 1.0910290E+01
endloop
endfacet
facet normal 2.8312076E-02 -4.7494170E-02 -9.9847019E-01
outer loop
vertex 9.6130001E+01 -1.9226000E+01 1.0910290E+01
vertex 9.6130001E+01 -5.7678001E+01 1.2739334E+01
vertex 5.7678001E+01 -5.7678001E+01 1.1649010E+01
endloop
endfacet
facet normal -1.8602649E-02 -5.3328238E-02 -9.9840375E-01
outer loop
vertex 5.7678001E+01 -1.9226000E+01 1.0711203E+01
vertex 5.7678001E+01 1.9226000E+01 8.6573467E+00
vertex 9.6130001E+01 1.9226000E+01 7.9408940E+00
endloop
endfacet
facet normal 5.1621308E-03 -7.6993199E-02 -9.9701825E-01
outer loop
vertex 9.6130001E+01 1.9226000E+01 7.9408940E+00
vertex 9.6130001E+01 -1.9226000E+01 1.0910290E+01
vertex 5.7678001E+01 -1.9226000E+01 1.0711203E+01
endloop
endfacet
facet normal -3.3789486E-02 -9.2181303E-02 -9.9516877E-01
outer loop
vertex 5.7678001E+01 1.9226000E+01 8.6573467E+00
vertex 5.7678001E+01 5.7678001E+01 5.0955835E+00
vertex 9.6130001E+01 5.7678001E+01 3.7900026E+00
endloop
endfacet
facet normal -1.8521589E-02 -1.0730800E-01 -9.9405329E-01
outer loop
vertex 9.6130001E+01 5.7678001E+01 3.7900026E+00
vertex 9.6130001E+01 1.9226000E+01 7.9408940E+00
vertex 5.7678001E+01 1.9226000E+01 8.6573467E+00
endloop
endfacet
facet normal -9.2293146E-02 -3.9555129E-02 -9.9494591E-01
outer loop
vertex 5.7678001E+01 5.7678001E+01 5.0955835E+00
vertex 5.7678001E+01 9.6130001E+01 3.5668834E+00
vertex 9.6130001E+01 9.6130001E+01 0.0000000E+00
endloop
endfacet
facet normal -3.3770513E-02 -9.8033246E-02 -9.9460999E-01
outer loop
vertex 9.6130001E+01 9.6130001E+01 0.0000000E+00
vertex 9.6130001E+01 5.7678001E+01 3.7900026E+00
vertex 5.7678001E+01 5.7678001E+01 5.0955835E+00
endloop
endfacet
endsolid Created by surf2stl.m 25-Oct-2023 19:00:38
